<?xml version="1.0" encoding="utf-8"?>
<!-- Generator: Adobe Illustrator 22.1.0, SVG Export Plug-In . SVG Version: 6.00 Build 0)  -->
<svg version="1.1" id="Laag_1" xmlns="http://www.w3.org/2000/svg" xmlns:xlink="http://www.w3.org/1999/xlink" x="0px" y="0px"
	 viewBox="0 0 841.9 595.3" style="enable-background:new 0 0 841.9 595.3;" xml:space="preserve">
<g>
	<path d="M135.2,127.9h19.3l24.2,67.4c3,8.6,5.9,17.5,9,26.3h0.8c3-8.8,5.7-17.7,8.7-26.3l23.9-67.4h19.3v126.2h-14.9v-69.5
		c0-11,1.2-26.2,2-37.3h-0.8l-10,28.8L193,241.4h-10.6l-23.9-65.3l-10-28.8h-0.8c0.8,11.2,2,26.3,2,37.3v69.5h-14.5V127.9z"/>
</g>
<g>
	<path d="M224.2,127.9h38c26,0,44,8.9,44,31.4c0,12.6-6.7,23.9-18.7,27.8v0.8c15.3,3,26,13.1,26,30.6c0,25.2-19.9,37.5-48.5,37.5
		h-40.9V127.9z M259.4,182.4c21.8,0,30.8-8,30.8-21c0-15-10.2-20.5-30.1-20.5h-19.7v41.6H259.4z M262.8,243.1
		c21.9,0,34.8-7.9,34.8-25.1c0-15.8-12.4-23-34.8-23h-22.3v48.1H262.8z"/>
</g>
</svg>
